<?xml version="1.0" encoding="utf-8"?>
<!-- Generator: Adobe Illustrator 17.0.1, SVG Export Plug-In . SVG Version: 6.00 Build 0)  -->
<!DOCTYPE svg PUBLIC "-//W3C//DTD SVG 1.1 Tiny//EN" "http://www.w3.org/Graphics/SVG/1.1/DTD/svg11-tiny.dtd">
<svg version="1.1" baseProfile="tiny" id="Layer_1" xmlns="http://www.w3.org/2000/svg" xmlns:xlink="http://www.w3.org/1999/xlink"
	 x="0px" y="0px" width="234px" height="74px" viewBox="0 0 234 74" xml:space="preserve">
<g>
	<g>
		<g>
			<path fill="#CF1F25" d="M26.331,39.174h-4.288L17.2,23.204l-4.843,15.97H8.07l-7.024-26.32h5.36l4.066,16.598l4.029-13.714
				c0.369-1.664,1.072-3.068,2.81-3.068c1.553,0,2.144,1.405,2.624,3.068l3.992,13.714l4.104-16.598h5.359L26.331,39.174z"/>
			<path fill="#CF1F25" d="M51.094,39.174V28.528h-9.648v10.646h-5.138v-26.32h5.138v11.126h9.648V12.854h5.138v26.32H51.094z"/>
		</g>
		<g>
			<g>
				<path fill="#CF1F25" d="M68.715,19.636h5.124v5.281h-5.708C68.164,23.033,68.371,21.25,68.715,19.636L68.715,19.636z
					 M68.715,31.328h5.124v-5.281h-5.708C68.164,27.931,68.371,29.711,68.715,31.328L68.715,31.328z M73.839,18.503v-6.789
					c-2.074,0.407-3.854,3.031-4.858,6.789H73.839z M81.274,31.328h5.653c0.756-1.617,1.205-3.397,1.279-5.281h-6.398
					C81.777,27.934,81.595,29.711,81.274,31.328L81.274,31.328z M81.274,19.636c0.322,1.617,0.503,3.394,0.537,5.281h6.395
					c-0.077-1.884-0.522-3.666-1.279-5.281H81.274z M81.018,18.503h5.314c-1.846-3.147-4.899-5.493-8.527-6.412
					C79.2,13.472,80.319,15.705,81.018,18.503L81.018,18.503z M73.839,39.248v-6.789h-4.858
					C69.985,36.216,71.765,38.84,73.839,39.248L73.839,39.248z M79.827,18.503c-1.001-3.755-2.781-6.382-4.858-6.789v6.789H79.827z
					 M80.677,26.047h-5.708v5.281h5.128C80.44,29.711,80.644,27.931,80.677,26.047L80.677,26.047z M60.603,26.047
					c0.077,1.884,0.525,3.664,1.282,5.281h5.65c-0.322-1.617-0.503-3.394-0.534-5.281H60.603z M67.793,32.459h-5.314
					c1.846,3.15,4.896,5.496,8.526,6.414C69.611,37.489,68.492,35.256,67.793,32.459L67.793,32.459z M81.018,32.459
					c-0.699,2.798-1.818,5.03-3.212,6.414c3.628-0.918,6.678-3.264,8.527-6.414H81.018z M67.793,18.503
					c0.699-2.798,1.815-5.031,3.21-6.412c-3.628,0.919-6.679,3.265-8.524,6.412H67.793z M80.097,19.636h-5.128v5.281h5.708
					C80.644,23.033,80.44,21.25,80.097,19.636L80.097,19.636z M61.885,19.636c-0.756,1.615-1.208,3.397-1.282,5.281h6.398
					c0.03-1.887,0.212-3.664,0.534-5.281H61.885z M74.969,32.459v6.791c2.077-0.407,3.857-3.033,4.858-6.791H74.969z M74.969,32.459
					"/>
			</g>
			<g>
				<path fill="#CF1F25" d="M97.644,23.916h-3.531h-3.918v3.132h3.918h3.531c0.372-0.416,0.599-0.964,0.599-1.566
					S98.015,24.332,97.644,23.916z"/>
			</g>
			<g>
				<g>
					<polygon fill="#CF1F25" points="175.402,27.048 183.378,27.048 183.378,23.916 174.306,23.916 					"/>
				</g>
				<g>
					<g>
						<path fill="#CF1F25" d="M185.16,28.264c0,0-0.041-0.081-0.105-0.225c-0.061-0.145-0.158-0.346-0.24-0.604
							c-0.042-0.128-0.088-0.268-0.131-0.418c-0.049-0.148-0.077-0.311-0.11-0.478c-0.028-0.168-0.076-0.339-0.079-0.52
							c-0.012-0.183-0.024-0.369-0.036-0.554c0.01-0.177,0.02-0.355,0.029-0.529c0.001-0.172,0.047-0.353,0.071-0.522
							c0.029-0.17,0.055-0.335,0.105-0.483c0.042-0.15,0.087-0.29,0.129-0.419c0.036-0.13,0.092-0.243,0.135-0.344
							c0.043-0.101,0.085-0.187,0.119-0.259c0.068-0.142,0.111-0.221,0.111-0.221s-0.009,0.091-0.03,0.246
							c-0.011,0.078-0.024,0.172-0.043,0.278c-0.017,0.107-0.042,0.225-0.055,0.357c-0.015,0.131-0.031,0.273-0.055,0.421
							c-0.028,0.148-0.026,0.305-0.044,0.464c-0.012,0.161-0.033,0.32-0.033,0.498c-0.005,0.175-0.01,0.352-0.015,0.53
							c0.007,0.169,0.013,0.338,0.02,0.504c0.001,0.169,0.024,0.336,0.04,0.498c0.021,0.161,0.022,0.321,0.05,0.468
							c0.024,0.148,0.041,0.29,0.056,0.422c0.031,0.263,0.07,0.486,0.085,0.642C185.154,28.173,185.16,28.264,185.16,28.264z"/>
					</g>
					<g>
						<path fill="#CF1F25" d="M183.866,29.073c0,0-0.057-0.103-0.142-0.287c-0.042-0.092-0.095-0.204-0.148-0.333
							c-0.051-0.131-0.125-0.271-0.17-0.441c-0.05-0.168-0.103-0.351-0.154-0.548c-0.058-0.196-0.09-0.405-0.121-0.622
							c-0.029-0.217-0.072-0.443-0.077-0.671c-0.013-0.228-0.02-0.46-0.027-0.693l0.019-0.356c0.008-0.113,0.016-0.226,0.023-0.337
							c0.008-0.22,0.056-0.451,0.094-0.669c0.042-0.217,0.076-0.432,0.131-0.621c0.052-0.192,0.105-0.372,0.156-0.538
							c0.101-0.332,0.211-0.598,0.287-0.787c0.077-0.188,0.13-0.293,0.13-0.293s0.008,0.118,0.008,0.32
							c0.003,0.203-0.013,0.491-0.024,0.833c-0.008,0.171-0.019,0.354-0.034,0.548c-0.02,0.195-0.017,0.392-0.033,0.597
							c-0.011,0.206-0.035,0.411-0.033,0.639c-0.003,0.112-0.005,0.225-0.008,0.338l-0.012,0.325
							c0.003,0.223,0.008,0.445,0.005,0.665c-0.007,0.221,0.013,0.432,0.015,0.641c0.005,0.208,0.003,0.411,0.023,0.598
							c0.013,0.189,0.022,0.37,0.029,0.539c0.001,0.168,0.027,0.328,0.034,0.467c0.013,0.139,0.018,0.263,0.023,0.364
							C183.869,28.955,183.866,29.073,183.866,29.073z"/>
					</g>
				</g>
				<g>
					<g>
						<path fill="#CF1F25" d="M88.512,28.264c0,0,0.006-0.09,0.023-0.247c0.015-0.156,0.053-0.379,0.085-0.642
							c0.015-0.132,0.032-0.273,0.056-0.422c0.028-0.148,0.029-0.307,0.05-0.468c0.016-0.162,0.039-0.329,0.04-0.498
							c0.007-0.166,0.013-0.335,0.02-0.504c-0.005-0.178-0.01-0.355-0.015-0.53c0-0.178-0.02-0.337-0.033-0.498
							c-0.018-0.16-0.016-0.316-0.044-0.464c-0.023-0.148-0.039-0.29-0.055-0.421c-0.013-0.132-0.038-0.251-0.055-0.357
							c-0.019-0.106-0.032-0.2-0.043-0.278c-0.021-0.155-0.03-0.246-0.03-0.246s0.043,0.079,0.111,0.221
							c0.034,0.071,0.075,0.158,0.119,0.259c0.044,0.101,0.099,0.213,0.135,0.344c0.042,0.129,0.087,0.269,0.129,0.419
							c0.049,0.148,0.075,0.313,0.105,0.483c0.025,0.169,0.071,0.35,0.071,0.522c0.01,0.175,0.02,0.352,0.029,0.529
							c-0.012,0.186-0.024,0.371-0.036,0.554c-0.003,0.181-0.051,0.352-0.079,0.52c-0.033,0.167-0.06,0.33-0.11,0.478
							c-0.043,0.15-0.088,0.29-0.131,0.418c-0.082,0.258-0.179,0.459-0.24,0.604C88.553,28.183,88.512,28.264,88.512,28.264z"/>
					</g>
					<g>
						<path fill="#CF1F25" d="M89.805,29.073c0,0-0.003-0.118,0.007-0.32c0.005-0.101,0.01-0.224,0.023-0.364
							c0.007-0.139,0.033-0.299,0.034-0.467c0.006-0.169,0.015-0.35,0.029-0.539c0.02-0.188,0.018-0.39,0.023-0.598
							c0.002-0.209,0.023-0.42,0.015-0.641c-0.003-0.22,0.002-0.442,0.005-0.665l-0.012-0.325c-0.003-0.113-0.005-0.226-0.008-0.338
							c0.002-0.228-0.022-0.433-0.033-0.639c-0.016-0.206-0.013-0.403-0.033-0.597c-0.015-0.193-0.026-0.377-0.034-0.548
							c-0.011-0.342-0.027-0.63-0.024-0.833c0-0.203,0.008-0.32,0.008-0.32s0.052,0.105,0.13,0.293
							c0.076,0.189,0.186,0.455,0.287,0.787c0.051,0.166,0.103,0.346,0.156,0.538c0.056,0.189,0.089,0.404,0.131,0.621
							c0.038,0.217,0.085,0.448,0.094,0.669c0.008,0.112,0.016,0.224,0.023,0.337l0.019,0.356c-0.008,0.232-0.014,0.465-0.027,0.693
							c-0.004,0.228-0.048,0.454-0.077,0.671c-0.031,0.217-0.064,0.426-0.121,0.622c-0.052,0.196-0.104,0.38-0.154,0.548
							c-0.045,0.17-0.119,0.309-0.17,0.441c-0.053,0.13-0.106,0.241-0.148,0.333C89.862,28.97,89.805,29.073,89.805,29.073z"/>
					</g>
				</g>
				<g>
					<g>
						<path fill="#CF1F25" d="M202.45,18.921c-0.051,0.005-0.112,0.021-0.086,0.083c0.035,0.082,0.053,0.198,0.186,0.185
							c0.164-0.016,0.171-0.02,0.162-0.08C202.697,19.012,202.556,18.91,202.45,18.921z"/>
					</g>
					<g>
						<path fill="#CF1F25" d="M206.229,22.845c0.04-0.006,0.095-0.008,0.082-0.063c-0.011-0.043-0.047-0.077-0.091-0.102
							c-0.046-0.027-0.068,0.007-0.087,0.031c-0.08,0.106-0.134,0.048-0.145-0.035c-0.016-0.121-0.096-0.197-0.187-0.275
							c-0.156-0.135-0.112-0.363,0.083-0.41c0.083-0.02,0.11-0.049,0.091-0.12c-0.021-0.076-0.079-0.122-0.16-0.106
							c-0.192,0.038-0.375,0.095-0.508,0.234c-0.066,0.069-0.086,0.138-0.052,0.236c0.064,0.18,0.126,0.376,0.275,0.499
							c0.185,0.152,0.147,0.289,0.103,0.454c-0.063,0.233,0.113,0.409,0.408,0.391c0.092-0.036,0.28-0.012,0.283-0.139
							c0.004-0.146-0.002-0.32-0.145-0.436C206.053,22.9,206.089,22.866,206.229,22.845z"/>
					</g>
					<g>
						<path fill="#CF1F25" d="M207.08,21.84c-0.075-0.006-0.174,0.155-0.157,0.251c0.01,0.057,0.039,0.121,0.111,0.104
							c0.133-0.032,0.132-0.14,0.126-0.247C207.141,21.909,207.159,21.846,207.08,21.84z"/>
					</g>
					<g>
						<path fill="#CF1F25" d="M199.42,11.709c-7.607,0-13.773,6.166-13.773,13.773s6.166,13.773,13.773,13.773
							c7.607,0,13.773-6.166,13.773-13.773S207.027,11.709,199.42,11.709z M205.141,16.055c-0.164-0.033-0.138-0.105-0.098-0.196
							c0.037-0.083,0.145-0.133,0.056-0.282c-0.012-0.021,0.003-0.04,0.023-0.041c0.197-0.008,0.325-0.152,0.497-0.193
							c0.232-0.055,0.468-0.094,0.654-0.224c0.024-0.017,0.053-0.037,0.11,0.015c-0.036,0.064-0.09,0.102-0.149,0.134
							c-0.167,0.092-0.346,0.17-0.532,0.242c-0.294,0.114-0.402,0.428-0.497,0.76c-0.032,0.111,0.068,0.178,0.141,0.25
							c0.026,0.026,0.079,0.04,0.071,0.084c-0.009,0.047-0.059,0.037-0.098,0.031c-0.1-0.014-0.202,0.002-0.269-0.148
							c-0.037-0.081-0.118-0.043-0.2-0.062C204.895,16.239,204.901,16.041,205.141,16.055z M205.986,16.785
							c0.017,0.056,0.007,0.085-0.035,0.089c-0.095,0.009-0.169-0.058-0.23-0.137c-0.029-0.037-0.002-0.078,0.036-0.075
							C205.844,16.668,205.924,16.712,205.986,16.785z M204.075,13.939c0.118,0.088,0.21,0.024,0.317,0.058
							c0.084,0.027,0.188,0.16,0.26,0.051c0.011-0.017,0.048,0.022,0.067,0.069c-0.01,0.066-0.045,0.117-0.112,0.09
							c-0.06-0.024-0.098-0.022-0.135,0.018c-0.03,0.032-0.071,0.024-0.102-0.032c-0.071-0.129-0.119-0.063-0.172-0.034
							c-0.017,0.009-0.033,0.027-0.023,0.059c0.011,0.037,0.035,0.031,0.056,0.034c0.03,0.005,0.068,0.01,0.066,0.064
							c-0.002,0.044-0.036,0.036-0.07,0.026c-0.117-0.035-0.185-0.156-0.237-0.266C203.944,13.975,204.035,13.909,204.075,13.939z
							 M204.731,17.015c0.01,0.09-0.049,0.122-0.122,0.144c-0.047,0.007-0.07-0.028-0.076-0.077c-0.01-0.089,0.04-0.135,0.105-0.154
							C204.691,16.912,204.725,16.961,204.731,17.015z M199.935,14.544c0.091-0.105,0.189-0.109,0.288-0.11
							c0.02,0.07-0.113,0.111-0.027,0.179c0.059,0.046,0.12,0.013,0.163-0.056c0.089-0.141,0.175-0.109,0.251-0.003
							c0.042,0.059,0.077,0.079,0.131,0.032l0,0c0.052-0.079,0.073-0.162-0.001-0.265c0.129,0,0.242-0.04,0.313,0.115
							c0.022,0.049,0.05,0.028,0.058,0.002c0.096-0.312,0.284-0.116,0.436-0.127c0.024-0.002,0.05,0.018,0.091,0.034
							c-0.147,0.158-0.284,0.325-0.505,0.226c-0.061-0.027-0.127-0.038-0.192-0.049c-0.077-0.013-0.14,0.007-0.149,0.127
							c0.058,0.021,0.127,0.023,0.133,0.128c0.089,0.053,0.18,0.105,0.271,0.158c0.045,0.042,0.15,0.049,0.115,0.136
							c-0.021,0.054-0.129,0.079-0.195,0.051c-0.109-0.047,0.019-0.122-0.003-0.184h0c-0.1,0.012-0.169-0.106-0.268-0.093
							c-0.092,0.136-0.178,0.277-0.226,0.448c-0.036,0.126-0.095,0.158-0.178,0.049c-0.032-0.042-0.079-0.069-0.121-0.105
							c0.044-0.062,0.15-0.064,0.139-0.176c-0.007-0.072-0.081-0.018-0.117-0.065c0.027-0.071,0.094-0.075,0.138-0.115
							c0.027-0.025,0.052-0.054,0.038-0.096c-0.013-0.039-0.045-0.053-0.077-0.041c-0.046,0.018-0.096,0.035-0.136,0.069
							c-0.08,0.068-0.155,0.121-0.234,0.019c-0.021-0.028-0.039-0.015-0.059,0.025c-0.041,0.081-0.077,0.024-0.103-0.014
							c-0.042-0.063,0.014-0.064,0.043-0.083c0.02-0.013,0.041-0.026,0.057-0.046c0.031-0.037,0.053-0.081,0.043-0.134
							C200.037,14.495,199.979,14.576,199.935,14.544z M197.64,19.517c0.012-0.011,0.03-0.017,0.046-0.024
							c0.01-0.004,0.021-0.003,0.063-0.01c-0.056,0.071-0.102,0.124-0.143,0.181c-0.089,0.125-0.068,0.168,0.083,0.175
							c0.027,0.001,0.057-0.006,0.088,0.037c-0.22,0.173-0.092,0.291,0.044,0.422c0.093,0.089,0.151,0.207,0.178,0.337
							c0.019,0.09,0.043,0.176,0.162,0.202c0.073,0.016,0.065,0.08,0.041,0.135c-0.057,0.135-0.174,0.209-0.319,0.207
							c-0.218-0.003-0.433,0.017-0.676,0.071c0.08-0.12,0.197-0.102,0.268-0.163c0.026-0.023,0.063-0.042,0.056-0.08
							c-0.006-0.036-0.039-0.048-0.075-0.055c-0.047-0.009-0.133,0.012-0.124-0.05c0.008-0.058,0.057-0.125,0.107-0.167
							c0.213-0.179,0.208-0.278-0.016-0.41c-0.099-0.058-0.074-0.16-0.097-0.252C197.254,19.787,197.475,19.673,197.64,19.517z
							 M189.984,21.328c-0.014,0.071-0.077,0.153,0.052,0.173c0.027,0.004,0.019,0.044-0.008,0.066
							c-0.025,0.021-0.058,0.031-0.08,0.01c-0.036-0.034-0.069-0.056-0.135-0.014c-0.036,0.023-0.07,0.09-0.119,0.054
							c-0.037-0.028-0.033-0.084-0.002-0.13c0.066-0.099,0.027-0.109-0.075-0.082c-0.071,0.018-0.144,0.029-0.216,0.041
							c-0.112,0.019-0.18-0.024-0.212-0.101c-0.035-0.084,0.05-0.135,0.126-0.18c0.152-0.09,0.295-0.209,0.495-0.223
							c-0.033,0.093-0.117,0.119-0.173,0.184c0.062,0.005,0.121,0.005,0.176,0.014C189.925,21.159,190.009,21.206,189.984,21.328z
							 M189.551,21.557c-0.011,0.029-0.036,0.05-0.066,0.048c-0.03-0.002-0.041-0.027-0.033-0.056
							c0.009-0.031,0.034-0.048,0.066-0.045C189.549,21.507,189.562,21.527,189.551,21.557z M188.592,19.128
							c0.007,0.032,0.019,0.063,0.029,0.09c0.019,0.057,0.049,0.085,0.156,0.065c0.174-0.033,0.331-0.074,0.498-0.187
							c0.103-0.07,0.14-0.02,0.108,0.066c-0.097,0.261,0.022,0.45,0.044,0.675c0.01,0.11,0.185,0.164,0.285,0.246
							c0.027,0.022,0.076,0.03,0.071,0.088c-0.104-0.001-0.205,0.022-0.303,0.086c-0.038,0.025-0.079,0.05-0.073,0.092
							c0.007,0.042,0.055,0.037,0.093,0.033c0.075-0.008,0.152-0.027,0.227-0.036c0.11-0.012,0.214-0.013,0.203,0.115
							c-0.015,0.182-0.108,0.278-0.266,0.318c-0.414,0.106-0.806,0.096-1.201,0.098c-0.297,0.001-0.558,0.172-0.816,0.334
							c-0.008,0.005-0.016,0.01-0.025,0.016C187.882,20.493,188.207,19.791,188.592,19.128z M188.909,21.131
							c-0.004,0.055-0.081,0.064-0.131,0.056c-0.097-0.016-0.178-0.062-0.177-0.148c0-0.059,0.081-0.041,0.125-0.048
							C188.823,21.007,188.917,21.033,188.909,21.131z M187.584,21.332c0.037,0.021,0.097-0.007,0.138-0.031
							c0.14-0.08,0.282-0.141,0.436-0.172c0.068-0.014,0.131-0.019,0.193-0.011c0.043,0.005,0.103,0,0.092,0.056
							c-0.011,0.055-0.073,0.091-0.125,0.091c-0.247-0.002-0.168,0.101-0.116,0.179c0.044,0.066,0.061,0.171,0.209,0.139
							c0.029-0.006,0.045,0.005,0.044,0.028c-0.009,0.233,0.158,0.094,0.279,0.049c0.028-0.034,0.066-0.051,0.108-0.063
							c0.046-0.013,0.107-0.038,0.109,0.019c0.003,0.064-0.061,0.049-0.105,0.056c-0.029,0.005-0.057,0.017-0.086,0.025
							c-0.095,0.092-0.22,0.115-0.339,0.152c-0.108,0.034-0.216,0.064-0.315,0.125c-0.035,0.022-0.085,0.053-0.113,0.016
							c-0.027-0.036,0.026-0.068,0.055-0.093c0.09-0.078,0.201-0.122,0.319-0.158c-0.039-0.072-0.113-0.058-0.185-0.049
							c-0.243,0.03-0.481,0.123-0.727,0.159c-0.014,0.002-0.026,0.006-0.039,0.01C187.468,21.682,187.524,21.506,187.584,21.332z
							 M191.941,30.914c-0.074,0.138-0.172,0.272-0.303,0.369c-0.169,0.124-0.194,0.289-0.151,0.481
							c0.078,0.355,0.053,0.674-0.072,0.959c-0.057,0.129-0.144,0.208-0.36,0.167c-0.123-0.024-0.21,0.011-0.295,0.048
							c-0.157,0.068-0.321,0.126-0.479,0.188c-0.114,0.045-0.157,0.121-0.04,0.263c0.059,0.072,0.07,0.138,0.054,0.192
							c-0.032,0.11-0.062,0.22-0.099,0.324c-1.644-1.795-2.773-4.069-3.154-6.589c0.054,0.006,0.109,0.01,0.166,0.01
							c0.111,0,0.186,0.028,0.272,0.14c0.189,0.245,0.448,0.47,0.734,0.67c0.079,0.056,0.184,0.085,0.287,0.097
							c0.255,0.031,0.441,0.163,0.613,0.314c0.06,0.052,0.093,0.113,0.098,0.178c0.002,0.031-0.004,0.072,0.019,0.092
							c0.231,0.2,0.086,0.286-0.074,0.381c-0.092,0.054-0.152,0.138-0.192,0.244c0.178,0.021,0.254-0.07,0.364-0.112
							c0.069-0.027,0.123-0.074,0.221-0.054c0.031,0.007,0.041,0.032,0.042,0.053c0.005,0.094-0.1,0.093-0.177,0.115
							c-0.055,0.016-0.154,0.014-0.13,0.074c0.024,0.061,0.123,0.066,0.196,0.08c0.117,0.023,0.179-0.026,0.246-0.072
							c0.201-0.137,0.299-0.131,0.514,0.058c0.221,0.193,0.476,0.302,0.77,0.34c0.206,0.026,0.398,0.084,0.548,0.237
							c0.035,0.036,0.082,0.069,0.129,0.094C192.116,30.484,192.07,30.672,191.941,30.914z M194.465,17.273
							c-0.09-0.016-0.192,0.016-0.288,0.094c-0.052,0.042-0.11,0.077-0.168,0.082c-0.071,0.006-0.107,0.053-0.141,0.114
							c-0.105,0.188-0.271,0.306-0.467,0.319c-0.304,0.02-0.534,0.241-0.748,0.465c-0.124,0.13-0.24,0.285-0.275,0.461
							c-0.018,0.093-0.298,0.272-0.389,0.271c-0.025,0-0.043-0.007-0.037-0.031c0.036-0.142-0.08-0.14-0.169-0.161
							c-0.108-0.026-0.172-0.098-0.208-0.185c-0.049-0.117-0.077-0.245-0.106-0.37c-0.014-0.06,0-0.13,0.049-0.197
							c0.062-0.085,0.079-0.123-0.037-0.114c-0.077,0.006-0.082-0.087-0.011-0.145c0.081-0.066,0.131-0.149,0.207-0.214
							c0.043-0.037,0.099-0.076,0.082-0.124c-0.018-0.05-0.078-0.004-0.124,0.012c-0.021,0.007-0.041,0.013-0.079,0.025
							c0.062-0.097,0.139-0.112,0.208-0.14c0.07-0.028,0.14-0.051,0.094-0.128c-0.03-0.051,0.002-0.095,0.068-0.147
							c0.156-0.123,0.172-0.205,0.062-0.277c-0.043-0.028-0.095-0.045-0.156-0.073c0.128-0.05,0.256-0.092,0.302-0.24
							c0.023-0.074,0.021-0.148-0.035-0.167c-0.086-0.029-0.118,0.137-0.205,0.143c-0.001-0.001-0.013-0.007-0.011-0.01
							c0.181-0.298,0.096-0.489,0.099-0.71c0.001-0.071-0.03-0.128-0.012-0.203c0.035-0.152-0.032-0.178-0.141-0.169
							c1.08-0.828,2.298-1.485,3.613-1.929c0.155-0.001,0.326-0.051,0.489-0.079c0.139-0.024,0.265-0.016,0.412-0.022
							c-0.12,0.148-0.07,0.17,0.012,0.168c0.106-0.002,0.21,0.006,0.352-0.029c-0.147,0.115-0.266,0.15-0.375,0.153
							c-0.32,0.01-0.657,0.153-1.012,0.334c-0.046,0.023-0.12,0.044-0.13,0.111c-0.01,0.073,0.068,0.048,0.117,0.031
							c0.098-0.033,0.198-0.078,0.297-0.124c0.284-0.131,0.541-0.173,0.788-0.155c0.026,0.002,0.074-0.009,0.056,0.04
							c-0.068,0.185,0.039,0.111,0.105,0.086c0.093-0.036,0.177-0.066,0.259-0.033c0.074,0.029,0.168,0.007,0.263-0.035
							c0.18-0.081,0.238-0.079,0.406,0.007c-0.062,0.064-0.127,0.093-0.19,0.117c-0.086,0.034-0.167,0.045-0.249,0.148
							c-0.055,0.069-0.124,0.018-0.191,0.046c-0.03,0.013-0.06,0.01-0.091,0.015c-0.067,0.012-0.159,0.036-0.178,0.122
							c-0.025,0.114,0.082,0.039,0.132,0.045c0.008,0.001,0.014,0.006,0.025,0.011c-0.105,0.123-0.181,0.272-0.329,0.345
							c-0.098,0.048-0.043,0.154-0.064,0.233c-0.023,0.084,0.033,0.133,0.098,0.15c0.029,0.008,0.092-0.027,0.068,0.041
							c-0.02,0.055-0.073,0.037-0.097,0.023c-0.068-0.039-0.148-0.006-0.227,0.013c-0.04,0.01-0.096,0.027-0.112,0.083
							c-0.017,0.06,0.034,0.065,0.071,0.073c0.028,0.006,0.064-0.001,0.08,0.033c-0.014,0.047-0.048,0.032-0.072,0.048
							c-0.027,0.018-0.061,0.026-0.072,0.065c-0.014,0.048,0.018,0.066,0.045,0.071c0.105,0.019,0.137,0.112,0.174,0.207
							c-0.055,0.055-0.097,0.028-0.141,0.032c-0.048,0.004-0.104,0.004-0.138,0.055c-0.039,0.06,0.004,0.093,0.031,0.128
							c0.012,0.017,0.021,0.038,0.033,0.062c-0.087,0.037-0.121-0.015-0.162-0.051c-0.056-0.048-0.106-0.101-0.164-0.144
							c-0.042-0.031-0.124-0.049-0.153,0.012c-0.077,0.164-0.161,0.123-0.249,0.121c-0.037-0.001-0.082-0.009-0.11,0.039
							c-0.028,0.048,0.008,0.075,0.03,0.099c0.031,0.034,0.059,0.068,0.014,0.132c-0.086,0.121-0.021,0.132,0.057,0.123
							c0.136-0.016,0.241,0.02,0.318,0.116c0.017,0.021,0.034,0.042,0.042,0.069c0.016,0.054,0.017,0.12-0.052,0.156
							c-0.068,0.036-0.085-0.026-0.089-0.074c-0.01-0.136-0.09-0.138-0.206-0.108c-0.089,0.023-0.09,0.101-0.124,0.154
							c-0.037,0.059-0.146,0.067-0.126,0.147c0.023,0.09,0.124,0.033,0.195,0.03c0.11-0.003,0.205,0.029,0.313,0.069
							C195.227,17.163,194.836,17.338,194.465,17.273z M196.654,20.592c-0.018-0.029,0.039-0.048,0.07-0.062
							c0.049-0.022,0.096-0.04,0.109-0.1c0.019-0.086,0.067-0.144,0.169-0.125c0.114,0.021,0.174,0.098,0.163,0.204
							c-0.019,0.202-0.338,0.473-0.547,0.458c-0.097-0.007-0.051-0.08-0.038-0.125C196.607,20.76,196.718,20.696,196.654,20.592z
							 M196.411,18.112c-0.001,0.096-0.088,0.113-0.151,0.139c-0.217,0.09-0.436,0.199-0.666,0.186
							c-0.116-0.007-0.231-0.019-0.261-0.15c-0.015-0.066-0.107-0.045-0.132-0.104c0.171-0.048,0.341-0.059,0.483-0.237
							c0.067-0.083,0.198-0.019,0.303-0.052c0.072-0.022,0.146-0.019,0.219-0.028C196.276,17.859,196.412,18.015,196.411,18.112z
							 M205.969,32.234c-0.197,0.472-0.295,0.953-0.508,1.424c-0.024,0.054-0.044,0.116-0.1,0.15
							c-0.218,0.131-0.375,0.184-0.444-0.044c-0.059-0.199-0.103-0.389,0.06-0.608c0.075-0.1,0.047-0.216,0.044-0.323
							c-0.006-0.229,0.099-0.4,0.357-0.534c0.242-0.125,0.427-0.301,0.496-0.585C206.015,31.893,206.038,32.07,205.969,32.234z
							 M211.147,28.105c-0.151,0.017-0.128-0.093-0.152-0.156c0.012-0.089-0.001-0.206,0.113-0.213
							c0.158-0.01,0.165,0.129,0.195,0.223C211.329,28.041,211.233,28.096,211.147,28.105z M211.904,25.686
							c-0.212,0.311-0.494,0.592-0.82,0.844c-0.131,0.101-0.173,0.198-0.16,0.328c0.031,0.317,0.001,0.631-0.227,0.934
							c-0.01,0.014-0.027,0.025-0.055,0.051c-0.067-0.075-0.137-0.143-0.193-0.218c-0.252-0.335-0.459-0.696-0.646-1.071
							c-0.068-0.137-0.095-0.281-0.108-0.43c-0.007-0.084-0.017-0.17-0.044-0.251c-0.017-0.051-0.027-0.131-0.108-0.131
							c-0.063,0-0.06,0.073-0.083,0.117c-0.047,0.09-0.128,0.104-0.223,0.057c-0.086-0.042-0.099-0.084-0.004-0.145
							c0.096-0.061,0.012-0.099-0.045-0.11c-0.232-0.042-0.415-0.151-0.613-0.249c-0.19-0.093-0.43-0.009-0.648-0.015
							c-0.16-0.004-0.321,0.016-0.483,0.011c-0.155-0.005-0.276-0.037-0.358-0.151c-0.041-0.057-0.096-0.07-0.181-0.05
							c-0.361,0.087-0.627-0.037-0.831-0.277c-0.045-0.053-0.089-0.106-0.157-0.14c-0.118-0.058-0.237-0.062-0.335,0.024
							c-0.096,0.085,0.001,0.151,0.055,0.212c0.205,0.232,0.36,0.49,0.531,0.737c0.062,0.09,0.158,0.069,0.238,0.038
							c0.159-0.063,0.318-0.133,0.414-0.267c0.072-0.1,0.107-0.102,0.16,0.015c0.065,0.144,0.231,0.211,0.387,0.273
							c0.142,0.057,0.224,0.108,0.092,0.25c-0.076,0.082-0.096,0.193-0.161,0.29c-0.24,0.356-0.639,0.56-1.031,0.77
							c-0.322,0.172-0.659,0.326-0.992,0.484c-0.165,0.078-0.26,0.058-0.318-0.085c-0.045-0.11-0.074-0.229-0.085-0.347
							c-0.015-0.163-0.101-0.285-0.233-0.394c-0.215-0.176-0.38-0.375-0.409-0.641c-0.014-0.125-0.08-0.23-0.236-0.271
							c-0.073-0.019-0.086-0.067-0.102-0.124c-0.06-0.209-0.174-0.397-0.335-0.563c-0.117-0.12-0.131-0.118-0.246,0.002
							c-0.076-0.026-0.077-0.18-0.185-0.116c-0.101,0.059-0.028,0.163,0.027,0.234c0.212,0.273,0.425,0.542,0.578,0.845
							c0.069,0.138,0.131,0.27,0.129,0.42c-0.002,0.145,0.088,0.241,0.188,0.355c0.186,0.211,0.402,0.4,0.576,0.616
							c0.106,0.132,0.223,0.258,0.335,0.382c0.198,0.219,0.497,0.107,0.765,0.042c0.185-0.045,0.368-0.1,0.558-0.153
							c-0.154,0.418-0.316,0.825-0.584,1.205c-0.16,0.227-0.346,0.432-0.588,0.61c-0.387,0.286-0.671,0.634-0.854,1.028
							c-0.122,0.264-0.002,0.506,0.086,0.736c0.095,0.247,0.128,0.497,0.097,0.76c-0.024,0.21-0.169,0.376-0.378,0.504
							c-0.182,0.111-0.353,0.23-0.5,0.374c-0.077,0.076-0.107,0.147-0.068,0.241c0.04,0.098,0.051,0.206,0.057,0.315
							c0.008,0.16-0.043,0.288-0.218,0.386c-0.139,0.077-0.209,0.191-0.231,0.337c-0.069,0.441-0.368,0.792-0.707,1.101
							c-0.229,0.209-0.541,0.21-0.824,0.266c-0.098,0.02-0.2,0.029-0.295,0.058c-0.168,0.05-0.283-0.026-0.395-0.12
							c-0.038-0.032-0.064-0.082-0.03-0.117c0.134-0.139,0.03-0.26-0.03-0.378c-0.113-0.224-0.251-0.439-0.366-0.665
							c-0.087-0.17-0.145-0.35-0.176-0.537c-0.056-0.338-0.167-0.664-0.35-0.973c-0.07-0.118-0.077-0.245-0.042-0.37
							c0.055-0.195,0.118-0.388,0.195-0.578c0.109-0.269,0.018-0.54-0.11-0.793c-0.055-0.109-0.142-0.205-0.177-0.327
							c-0.023-0.082-0.083-0.17-0.157-0.227c-0.331-0.255-0.296-0.571-0.258-0.89c0.013-0.115,0.021-0.229-0.011-0.343
							c-0.039-0.14-0.153-0.202-0.308-0.163c-0.184,0.046-0.294,0.013-0.413-0.126c-0.122-0.143-0.32-0.208-0.529-0.132
							c-0.493,0.18-1.043,0.105-1.558,0.178c-0.073,0.01-0.148-0.011-0.211-0.043c-0.267-0.136-0.583-0.271-0.669-0.523
							c-0.103-0.301-0.358-0.519-0.518-0.783c-0.009-0.015-0.013-0.035-0.027-0.045c-0.245-0.168-0.192-0.358-0.112-0.555
							c0.074-0.18,0.04-0.374,0.05-0.562c0.01-0.178,0-0.357,0.053-0.531c0.01-0.031,0.008-0.075,0.033-0.091
							c0.295-0.189,0.411-0.507,0.704-0.699c0.04-0.027,0.086-0.048,0.125-0.075c0.182-0.128,0.331-0.264,0.3-0.493
							c-0.015-0.112,0.035-0.23,0.164-0.297c0.18-0.094,0.323-0.213,0.407-0.382c0.039-0.078,0.1-0.099,0.172-0.028
							c0.074,0.072,0.17,0.065,0.263,0.043c0.294-0.068,0.583-0.147,0.876-0.213c0.374-0.085,0.76-0.071,1.138-0.112
							c0.179-0.02,0.279,0.147,0.232,0.348c-0.057,0.244,0.012,0.338,0.293,0.405c0.198,0.047,0.367,0.147,0.544,0.233
							c0.078,0.038,0.151,0.082,0.232,0.115c0.288,0.117,0.351,0.096,0.479-0.154c0.072-0.14,0.176-0.206,0.361-0.158
							c0.298,0.078,0.6,0.146,0.901,0.217c0.056,0.013,0.115,0.03,0.169,0.005c0.167-0.075,0.33-0.063,0.498-0.005
							c0.146,0.05,0.241-0.025,0.297-0.121c0.157-0.268,0.209-0.56,0.238-0.855c0.012-0.119-0.062-0.142-0.178-0.095
							c-0.124,0.05-0.251,0.052-0.386,0.028c-0.107-0.019-0.212-0.029-0.328,0.017c-0.179,0.072-0.432-0.056-0.487-0.227
							c-0.024-0.073-0.035-0.15-0.057-0.224c-0.036-0.118,0.005-0.18,0.15-0.181c0.036,0,0.091-0.002,0.104-0.021
							c0.153-0.222,0.457-0.188,0.667-0.312c0.124-0.073,0.273-0.014,0.41,0.028c0.235,0.072,0.473,0.136,0.722,0.065
							c0.219-0.062,0.253-0.203,0.076-0.341c-0.126-0.098-0.262-0.187-0.402-0.267c-0.128-0.073-0.167-0.15-0.092-0.271
							c0.03-0.048,0.079-0.108,0.016-0.164c-0.055-0.05-0.13-0.027-0.19-0.012c-0.085,0.021-0.167,0.057-0.247,0.093
							c-0.099,0.045-0.17,0.101-0.031,0.187c0.03,0.019,0.062,0.043,0.042,0.081c-0.022,0.041-0.066,0.047-0.109,0.033
							c-0.104-0.033-0.237-0.034-0.195-0.199c0.021-0.082-0.13-0.14-0.254-0.104c-0.148,0.043-0.235,0.148-0.306,0.263
							c-0.121,0.197-0.281,0.379-0.203,0.639c0.033,0.109-0.049,0.232-0.209,0.211c-0.217-0.03-0.38,0.074-0.562,0.136
							c-0.041,0.014-0.054,0.049-0.038,0.082c0.019,0.04,0.043,0.08,0.074,0.112c0.178,0.181,0.163,0.254-0.088,0.369
							c-0.037,0.017-0.08,0.05-0.115,0.003c-0.033-0.044-0.015-0.087,0.036-0.112c0.043-0.021,0.097-0.023,0.13-0.061
							c0.025-0.029,0.043-0.062,0.003-0.086c-0.052-0.031-0.035,0.023-0.049,0.038c-0.044,0.051-0.077,0.007-0.109-0.011
							c-0.192-0.11-0.297-0.281-0.375-0.458c-0.059-0.133-0.132-0.243-0.262-0.325c-0.181-0.114-0.352-0.237-0.485-0.395
							c-0.066-0.078-0.201-0.074-0.243-0.182c-0.015-0.038-0.065-0.004-0.088,0.02c-0.045,0.047-0.137,0.084-0.088,0.162
							c0.155,0.244,0.285,0.509,0.594,0.645c0.118,0.052,0.244,0.097,0.328,0.212c-0.215-0.052-0.213-0.052-0.21,0.144
							c0.001,0.062,0.023,0.128-0.025,0.188c-0.069-0.02-0.043-0.065-0.048-0.097c-0.021-0.133-0.085-0.249-0.23-0.296
							c-0.274-0.088-0.459-0.265-0.635-0.454c-0.197-0.212-0.251-0.299-0.574-0.117c-0.089,0.05-0.191,0.035-0.289,0.03
							c-0.179-0.009-0.294,0.041-0.322,0.22c-0.021,0.14-0.15,0.213-0.284,0.266c-0.166,0.066-0.287,0.152-0.293,0.329
							c-0.003,0.1-0.083,0.174-0.179,0.222c-0.2,0.099-0.432,0.119-0.643,0.192c-0.006,0.002-0.013,0.003-0.019,0.001
							c-0.151-0.056-0.278-0.146-0.422-0.212c-0.168-0.078-0.141-0.242-0.076-0.394c0.055-0.129,0.073-0.263,0.053-0.402
							c-0.026-0.178,0.047-0.247,0.245-0.237c0.194,0.01,0.389,0.026,0.581,0.054c0.229,0.033,0.397-0.062,0.404-0.27
							c0.009-0.25-0.06-0.474-0.321-0.6c-0.043-0.021-0.095-0.046-0.085-0.091c0.013-0.061,0.08-0.039,0.121-0.035
							c0.102,0.01,0.19,0.006,0.236-0.102c0.016-0.039,0.056-0.055,0.103-0.056c0.133-0.003,0.239-0.069,0.34-0.144
							c0.128-0.095,0.221-0.235,0.408-0.249c0.044-0.003,0.112-0.069,0.122-0.114c0.06-0.252,0.286-0.271,0.479-0.311
							c0.226-0.048,0.228-0.033,0.226-0.256c-0.001-0.093,0.002-0.186,0.006-0.28c0.003-0.065,0.022-0.132,0.107-0.119
							c0.085,0.013,0.05,0.079,0.035,0.132c-0.09,0.314,0.007,0.412,0.349,0.353c0.05-0.009,0.126-0.03,0.144,0.017
							c0.07,0.178,0.183,0.073,0.279,0.037c0.097-0.037,0.188-0.086,0.282-0.129c0.047-0.021,0.091-0.038,0.148-0.022
							c0.261,0.071,0.452-0.079,0.443-0.341c-0.002-0.049-0.014-0.1,0.016-0.145c0.05-0.074,0.102-0.14,0.198-0.046
							c0.047,0.047,0.104,0.105,0.174,0.044c0.06-0.053,0.057-0.129,0.028-0.199c-0.014-0.035-0.045-0.063-0.065-0.096
							c-0.075-0.125-0.023-0.232,0.125-0.241c0.172-0.011,0.344-0.017,0.511-0.055c0.057-0.013,0.136-0.021,0.135-0.094
							c-0.001-0.057-0.072-0.081-0.122-0.101c-0.129-0.053-0.261-0.034-0.39-0.006c-0.096,0.021-0.188,0.06-0.283,0.087
							c-0.218,0.063-0.291,0.011-0.324-0.209c-0.029-0.199,0.018-0.366,0.162-0.508c0.084-0.083,0.159-0.176,0.23-0.271
							c0.04-0.054,0.094-0.116,0.029-0.189c-0.065-0.072-0.144-0.122-0.239-0.089c-0.119,0.041-0.226,0.111-0.237,0.256
							c-0.012,0.159-0.105,0.239-0.229,0.308c-0.147,0.082-0.252,0.196-0.289,0.377c-0.027,0.13-0.014,0.233,0.075,0.333
							c0.101,0.113,0.079,0.237-0.053,0.321c-0.127,0.081-0.154,0.202-0.139,0.331c0.012,0.109-0.024,0.159-0.138,0.178
							c-0.071,0.012-0.146,0.041-0.205,0.082c-0.139,0.095-0.196,0.026-0.233-0.09c-0.059-0.187-0.124-0.371-0.205-0.549
							c-0.04-0.088-0.072-0.119-0.163-0.036c-0.082,0.074-0.174,0.146-0.287,0.179c-0.173,0.051-0.256-0.009-0.244-0.182
							c0.006-0.1,0.003-0.196-0.03-0.289c-0.041-0.12-0.008-0.226,0.094-0.312c0.104-0.088,0.251-0.126,0.295-0.283
							c0.013-0.047,0.067-0.019,0.098-0.001c0.083,0.047,0.165,0.084,0.243-0.017c0.072-0.093,0.094-0.197,0.023-0.288
							c-0.092-0.117-0.054-0.159,0.076-0.183c0.067-0.012,0.142-0.035,0.12-0.138c-0.013-0.063,0.038-0.058,0.07-0.083
							c0.121-0.096,0.295-0.127,0.342-0.311c0.009-0.034,0.041-0.046,0.072-0.057c0.117-0.044,0.216-0.094,0.135-0.26
							c-0.03-0.062,0.037-0.073,0.072-0.066c0.14,0.026,0.274-0.045,0.363-0.116c0.106-0.085,0.195-0.112,0.315-0.109
							c0.048,0.001,0.086-0.041,0.107-0.099c0.037-0.102,0.131-0.082,0.207-0.1c0.019,0.192,0.139,0.056,0.173,0.045
							c0.15-0.049,0.268,0.1,0.408,0.072c0.001,0.012,0.005,0.024,0.002,0.028c-0.034,0.045-0.137,0.046-0.103,0.127
							c0.024,0.06,0.11,0.047,0.169,0.039c0.464-0.057,0.852,0.215,1.266,0.439c0.131,0.071,0.133,0.175,0.01,0.244
							c-0.186,0.104-0.392,0.105-0.602,0.024c-0.08-0.031-0.159-0.07-0.244-0.059c-0.028,0.004-0.065,0.019-0.078,0.042
							c-0.02,0.035,0.022,0.057,0.045,0.076c0.096,0.079,0.16,0.18,0.215,0.293c0.056,0.114,0.159,0.183,0.275,0.231
							c0.067,0.028,0.134,0.039,0.171-0.025c0.042-0.073-0.038-0.102-0.077-0.143c-0.018-0.019-0.035-0.04-0.059-0.068
							c0.084-0.019,0.145,0.025,0.209,0.05c0.136,0.054,0.201,0.021,0.227-0.115c0.026-0.135,0.174-0.258,0.3-0.248
							c0.178,0.014,0.224-0.06,0.152-0.24c-0.036-0.091-0.143-0.214-0.072-0.266c0.068-0.05,0.191,0.042,0.284,0.108
							c0.005,0.079-0.176,0.072-0.058,0.195c0.099,0.103,0.198,0.078,0.256-0.004c0.158-0.223,0.409-0.285,0.623-0.404
							c0.058-0.032,0.106-0.042,0.156,0.039c0.051,0.082,0.108,0.063,0.163,0.04c0.142-0.06,0.257-0.155,0.382-0.254
							c0.025,0.053-0.014,0.133,0.08,0.153c0.068,0.015,0.101-0.021,0.132-0.061c0.19-0.243,0.413-0.274,0.752-0.1
							c0.02,0.01,0.04,0.02,0.06,0.031c0.095,0.055,0.204,0.098,0.233-0.006c0.026-0.096-0.073-0.162-0.158-0.221
							c-0.061-0.042-0.116-0.099-0.17-0.152c-0.075-0.074-0.094-0.145-0.041-0.209c0.069-0.083,0.092-0.194,0.1-0.316
							c0.008-0.129,0.094-0.17,0.227-0.122c0.122,0.044,0.147,0.132,0.149,0.235c0.001,0.069,0.034,0.136,0.077,0.204
							c0.182,0.287,0.273,0.578,0.281,0.87c0.003,0.098-0.001,0.216-0.166,0.093c-0.024-0.018-0.063-0.021-0.091-0.019
							c-0.042,0.003-0.104-0.013-0.108,0.043c-0.005,0.063,0.058,0.078,0.101,0.102c0.225,0.125,0.314,0.112,0.42-0.061
							c0.065-0.108,0.079-0.241,0.088-0.376c0.005-0.069,0.003-0.152,0.092-0.144c0.083,0.007,0.152,0.07,0.202,0.152
							c0.065,0.108,0.138,0.197,0.261,0.221c0.049,0.009,0.08-0.007,0.087-0.046c0.008-0.047-0.037-0.063-0.073-0.082
							c-0.048-0.026-0.084-0.063-0.115-0.111c-0.126-0.196-0.292-0.284-0.474-0.302c-0.114-0.011-0.181-0.052-0.244-0.189
							c-0.123-0.264-0.132-0.262-0.091-0.505c0.109,0.15,0.219,0.287,0.379,0.335c0.04,0.012,0.08,0.021,0.119,0.025
							c0.03,0.003,0.058-0.006,0.054-0.042c-0.003-0.029-0.033-0.046-0.055-0.066c-0.075-0.068-0.172-0.09-0.247-0.194
							c0.087,0.026,0.149-0.001,0.216-0.017c2.533,2.298,4.123,5.615,4.123,9.304c0,0.047-0.001,0.094-0.002,0.141
							C211.975,25.598,211.937,25.636,211.904,25.686z M198.39,23.282c0.036-0.085,0.13-0.092,0.21-0.111
							c0.036-0.008,0.069,0.017,0.075,0.072c-0.078,0.03-0.159,0.066-0.244,0.091C198.389,23.346,198.38,23.306,198.39,23.282z
							 M199.941,23.647c-0.012-0.073,0.104-0.049,0.115-0.052c0.165-0.021,0.235,0.016,0.237,0.122
							c0.001,0.047-0.017,0.095-0.088,0.075C200.102,23.763,199.959,23.757,199.941,23.647z"/>
					</g>
				</g>
			</g>
			<g>
				<circle fill="#CF1F25" cx="176.516" cy="42.485" r="2.73"/>
			</g>
			<g>
				<circle fill="#CF1F25" cx="187.665" cy="42.485" r="2.73"/>
			</g>
		</g>
		<g>
			<path fill="#CF1F25" d="M116.642,39.174c-5.878,0-8.392-2.107-8.392-7.319v-19h5.138v19c0,2.107,0.813,2.736,3.254,2.736h7.836
				v4.584H116.642z"/>
			<path fill="#CF1F25" d="M136.601,39.174c-5.878,0-8.022-1.737-8.022-6.95v-19.37h17.338v4.584h-12.199v6.173h8.539l-0.369,4.583
				h-8.17v3.66c0,2.107,0.813,2.736,3.254,2.736h8.946v4.584H136.601z"/>
		</g>
		<g>
			<path fill="#CF1F25" d="M225.893,17.438v21.736h-5.138V17.438h-7.023v-4.584h19.222v4.584H225.893z"/>
		</g>
		<g>
			<path fill="#CF1F25" d="M186.797,34.362h-8.746c0,0-2.02,0.398-3.253-2.735L162.631,1h-5.138l12.167,30.627
				c1.913,5.541,2.513,7.319,8.39,7.319h13.817C189.855,37.812,188.122,36.241,186.797,34.362z"/>
		</g>
		<g>
			<rect x="146.587" y="1" fill="#CF1F25" width="16.041" height="4.583"/>
		</g>
	</g>
	<g>
		<path fill="#CF1F25" d="M4.051,59.774c-0.504,0-0.942-0.059-1.316-0.178c-0.374-0.119-0.685-0.286-0.932-0.499
			c-0.248-0.213-0.433-0.466-0.557-0.758s-0.19-0.609-0.2-0.953h0.895c0.021,0.266,0.088,0.496,0.202,0.691
			c0.112,0.195,0.261,0.355,0.445,0.48c0.183,0.126,0.397,0.219,0.64,0.281c0.242,0.061,0.503,0.092,0.781,0.092
			c0.253,0,0.486-0.026,0.699-0.079c0.214-0.053,0.397-0.13,0.55-0.232c0.154-0.102,0.273-0.226,0.36-0.375
			c0.086-0.149,0.13-0.317,0.13-0.506c0-0.195-0.038-0.359-0.116-0.493C5.555,57.11,5.43,56.992,5.257,56.89
			c-0.174-0.102-0.401-0.193-0.682-0.273s-0.624-0.164-1.029-0.25c-0.412-0.083-0.761-0.184-1.049-0.301
			c-0.287-0.118-0.52-0.253-0.699-0.409c-0.179-0.154-0.309-0.331-0.388-0.531s-0.118-0.426-0.118-0.679
			c0-0.281,0.059-0.542,0.177-0.783c0.117-0.242,0.285-0.448,0.503-0.62c0.218-0.171,0.482-0.305,0.791-0.403
			c0.309-0.097,0.653-0.146,1.034-0.146c0.389,0,0.747,0.047,1.076,0.141c0.327,0.095,0.607,0.231,0.842,0.411
			c0.233,0.179,0.417,0.4,0.554,0.663s0.207,0.562,0.213,0.899H5.572c-0.086-0.859-0.664-1.289-1.734-1.289
			c-0.534,0-0.943,0.099-1.224,0.296s-0.421,0.456-0.421,0.774c0,0.149,0.023,0.276,0.069,0.383c0.046,0.107,0.13,0.201,0.252,0.283
			c0.123,0.082,0.289,0.156,0.499,0.225s0.479,0.137,0.807,0.209c0.321,0.074,0.605,0.144,0.85,0.21
			c0.247,0.067,0.462,0.131,0.648,0.193c0.17,0.061,0.334,0.144,0.493,0.246c0.159,0.102,0.302,0.225,0.429,0.371
			c0.127,0.145,0.228,0.314,0.304,0.508c0.076,0.193,0.113,0.409,0.113,0.647c0,0.306-0.064,0.587-0.192,0.843
			c-0.129,0.257-0.308,0.479-0.538,0.666c-0.23,0.187-0.506,0.334-0.825,0.44C4.781,59.72,4.432,59.774,4.051,59.774z"/>
		<path fill="#CF1F25" d="M14.607,59.653H13.68v-3.315h-3.667v3.315H9.094v-7.034h0.918v2.875h3.667v-2.875h0.928V59.653z"/>
		<path fill="#CF1F25" d="M20.379,52.494c0.495,0,0.948,0.085,1.359,0.257c0.412,0.172,0.766,0.416,1.064,0.735
			c0.298,0.319,0.531,0.701,0.696,1.15c0.165,0.449,0.249,0.948,0.249,1.498c0,0.551-0.084,1.051-0.253,1.501
			c-0.168,0.449-0.402,0.832-0.699,1.148c-0.298,0.315-0.653,0.559-1.064,0.732c-0.412,0.173-0.862,0.26-1.35,0.26
			c-0.491,0-0.944-0.089-1.359-0.267c-0.414-0.178-0.771-0.426-1.068-0.745c-0.298-0.319-0.532-0.7-0.699-1.145
			c-0.167-0.445-0.25-0.94-0.25-1.484c0-0.534,0.082-1.025,0.244-1.472c0.162-0.447,0.391-0.831,0.689-1.152
			c0.296-0.321,0.652-0.571,1.066-0.748C19.417,52.583,19.875,52.494,20.379,52.494z M20.37,58.976c0.358,0,0.686-0.066,0.983-0.199
			c0.296-0.133,0.551-0.323,0.763-0.571c0.212-0.247,0.376-0.545,0.494-0.894c0.117-0.349,0.176-0.743,0.176-1.178
			c0-0.441-0.059-0.839-0.176-1.192c-0.118-0.352-0.282-0.65-0.494-0.892c-0.212-0.243-0.463-0.429-0.756-0.558
			c-0.292-0.13-0.612-0.195-0.961-0.195c-0.359,0-0.686,0.064-0.984,0.192c-0.296,0.129-0.552,0.313-0.765,0.552
			c-0.213,0.24-0.38,0.536-0.501,0.889c-0.121,0.352-0.18,0.754-0.18,1.205c0,0.442,0.059,0.839,0.18,1.19
			c0.121,0.35,0.287,0.649,0.498,0.894c0.212,0.246,0.464,0.434,0.759,0.564C19.7,58.912,20.021,58.976,20.37,58.976z"/>
		<path fill="#CF1F25" d="M26.142,52.619h2.945c0.309,0,0.608,0.032,0.897,0.095c0.289,0.063,0.544,0.175,0.765,0.332
			s0.398,0.368,0.531,0.63c0.133,0.263,0.2,0.594,0.2,0.992c0,0.721-0.221,1.263-0.663,1.627c-0.442,0.366-1.101,0.548-1.975,0.548
			H27.06v2.81h-0.918V52.619z M27.06,55.999h1.785c0.306,0,0.564-0.029,0.774-0.085c0.21-0.058,0.381-0.14,0.512-0.249
			c0.131-0.108,0.227-0.244,0.288-0.408c0.06-0.164,0.09-0.352,0.09-0.566c0-0.241-0.04-0.442-0.123-0.605
			c-0.082-0.162-0.195-0.291-0.339-0.385c-0.143-0.095-0.313-0.16-0.508-0.198c-0.195-0.036-0.402-0.056-0.621-0.056h-1.86V55.999z"
			/>
		<path fill="#CF1F25" d="M42.883,61.721h-0.756v-9.102h0.756V61.721z"/>
		<path fill="#CF1F25" d="M58.651,53.449h-3.826v2.18h3.31v0.829h-3.31v3.195h-0.918v-7.034h4.744V53.449z"/>
		<path fill="#CF1F25" d="M64.092,52.494c0.495,0,0.948,0.085,1.359,0.257c0.412,0.172,0.766,0.416,1.064,0.735
			c0.298,0.319,0.531,0.701,0.696,1.15c0.165,0.449,0.249,0.948,0.249,1.498c0,0.551-0.084,1.051-0.253,1.501
			c-0.168,0.449-0.402,0.832-0.7,1.148c-0.298,0.315-0.653,0.559-1.064,0.732c-0.412,0.173-0.862,0.26-1.35,0.26
			c-0.491,0-0.944-0.089-1.359-0.267c-0.414-0.178-0.771-0.426-1.068-0.745c-0.298-0.319-0.532-0.7-0.699-1.145
			c-0.167-0.445-0.25-0.94-0.25-1.484c0-0.534,0.082-1.025,0.244-1.472c0.162-0.447,0.391-0.831,0.689-1.152
			c0.296-0.321,0.652-0.571,1.066-0.748C63.13,52.583,63.589,52.494,64.092,52.494z M64.084,58.976c0.358,0,0.686-0.066,0.983-0.199
			c0.296-0.133,0.551-0.323,0.763-0.571c0.212-0.247,0.376-0.545,0.494-0.894c0.117-0.349,0.176-0.743,0.176-1.178
			c0-0.441-0.059-0.839-0.176-1.192c-0.118-0.352-0.282-0.65-0.494-0.892c-0.212-0.243-0.463-0.429-0.756-0.558
			c-0.292-0.13-0.612-0.195-0.961-0.195c-0.359,0-0.686,0.064-0.984,0.192c-0.296,0.129-0.552,0.313-0.765,0.552
			c-0.213,0.24-0.38,0.536-0.501,0.889c-0.121,0.352-0.18,0.754-0.18,1.205c0,0.442,0.059,0.839,0.18,1.19
			c0.121,0.35,0.287,0.649,0.498,0.894c0.212,0.246,0.464,0.434,0.759,0.564C63.413,58.912,63.735,58.976,64.084,58.976z"/>
		<path fill="#CF1F25" d="M72.892,52.494c0.495,0,0.948,0.085,1.359,0.257c0.412,0.172,0.766,0.416,1.064,0.735
			c0.298,0.319,0.531,0.701,0.696,1.15c0.165,0.449,0.249,0.948,0.249,1.498c0,0.551-0.084,1.051-0.253,1.501
			c-0.168,0.449-0.402,0.832-0.699,1.148c-0.298,0.315-0.653,0.559-1.064,0.732c-0.412,0.173-0.862,0.26-1.35,0.26
			c-0.491,0-0.944-0.089-1.359-0.267c-0.414-0.178-0.771-0.426-1.068-0.745c-0.298-0.319-0.532-0.7-0.699-1.145
			c-0.167-0.445-0.25-0.94-0.25-1.484c0-0.534,0.082-1.025,0.244-1.472c0.162-0.447,0.391-0.831,0.689-1.152
			c0.296-0.321,0.652-0.571,1.066-0.748C71.93,52.583,72.389,52.494,72.892,52.494z M72.884,58.976c0.358,0,0.686-0.066,0.983-0.199
			c0.297-0.133,0.551-0.323,0.763-0.571c0.212-0.247,0.376-0.545,0.494-0.894c0.117-0.349,0.176-0.743,0.176-1.178
			c0-0.441-0.059-0.839-0.176-1.192c-0.118-0.352-0.282-0.65-0.494-0.892c-0.212-0.243-0.463-0.429-0.756-0.558
			c-0.292-0.13-0.612-0.195-0.961-0.195c-0.359,0-0.686,0.064-0.984,0.192c-0.296,0.129-0.552,0.313-0.765,0.552
			c-0.213,0.24-0.38,0.536-0.501,0.889c-0.121,0.352-0.18,0.754-0.18,1.205c0,0.442,0.059,0.839,0.18,1.19
			c0.121,0.35,0.287,0.649,0.498,0.894c0.212,0.246,0.464,0.434,0.759,0.564C72.213,58.912,72.534,58.976,72.884,58.976z"/>
		<path fill="#CF1F25" d="M78.655,52.619h2.221c2.396,0,3.593,1.158,3.593,3.474c0,2.374-1.197,3.561-3.593,3.561h-2.221V52.619z
			 M79.573,58.81h1.28c0.532,0,0.969-0.063,1.312-0.188c0.344-0.126,0.614-0.305,0.812-0.54c0.198-0.235,0.335-0.52,0.413-0.856
			c0.078-0.335,0.116-0.713,0.116-1.133c0-0.412-0.039-0.779-0.118-1.103c-0.08-0.325-0.219-0.603-0.417-0.833
			c-0.2-0.23-0.47-0.406-0.812-0.526c-0.342-0.121-0.776-0.181-1.305-0.181h-1.28V58.81z"/>
		<path fill="#CF1F25" d="M95.948,61.721h-0.756v-9.102h0.756V61.721z"/>
		<path fill="#CF1F25" d="M109.624,59.774c-0.504,0-0.942-0.059-1.316-0.178c-0.374-0.119-0.685-0.286-0.932-0.499
			c-0.248-0.213-0.433-0.466-0.557-0.758s-0.19-0.609-0.2-0.953h0.895c0.021,0.266,0.088,0.496,0.202,0.691
			c0.112,0.195,0.261,0.355,0.445,0.48c0.183,0.126,0.397,0.219,0.64,0.281c0.242,0.061,0.503,0.092,0.781,0.092
			c0.253,0,0.486-0.026,0.699-0.079c0.214-0.053,0.397-0.13,0.55-0.232c0.154-0.102,0.273-0.226,0.36-0.375
			c0.086-0.149,0.13-0.317,0.13-0.506c0-0.195-0.038-0.359-0.116-0.493c-0.077-0.135-0.202-0.253-0.375-0.355
			c-0.174-0.102-0.401-0.193-0.682-0.273s-0.624-0.164-1.029-0.25c-0.412-0.083-0.761-0.184-1.049-0.301
			c-0.287-0.118-0.52-0.253-0.7-0.409c-0.179-0.154-0.309-0.331-0.388-0.531s-0.118-0.426-0.118-0.679
			c0-0.281,0.059-0.542,0.177-0.783c0.117-0.242,0.285-0.448,0.503-0.62c0.218-0.171,0.482-0.305,0.791-0.403
			c0.309-0.097,0.653-0.146,1.034-0.146c0.389,0,0.747,0.047,1.076,0.141c0.327,0.095,0.607,0.231,0.842,0.411
			c0.233,0.179,0.417,0.4,0.554,0.663s0.207,0.562,0.213,0.899h-0.909c-0.086-0.859-0.664-1.289-1.734-1.289
			c-0.534,0-0.943,0.099-1.224,0.296s-0.421,0.456-0.421,0.774c0,0.149,0.023,0.276,0.069,0.383
			c0.046,0.107,0.131,0.201,0.252,0.283c0.123,0.082,0.289,0.156,0.499,0.225s0.479,0.137,0.807,0.209
			c0.321,0.074,0.604,0.144,0.85,0.21c0.247,0.067,0.462,0.131,0.648,0.193c0.17,0.061,0.334,0.144,0.493,0.246
			c0.159,0.102,0.302,0.225,0.429,0.371c0.127,0.145,0.228,0.314,0.304,0.508c0.076,0.193,0.113,0.409,0.113,0.647
			c0,0.306-0.064,0.587-0.192,0.843c-0.129,0.257-0.308,0.479-0.538,0.666c-0.23,0.187-0.506,0.334-0.825,0.44
			C110.354,59.72,110.005,59.774,109.624,59.774z"/>
		<path fill="#CF1F25" d="M119.913,59.653h-5.245v-7.034h5.082v0.83h-4.163v2.147h3.886v0.839h-3.886v2.375h4.327V59.653z"/>
		<path fill="#CF1F25" d="M128.225,59.653h-1.01l-0.663-1.878c-0.062-0.164-0.143-0.316-0.244-0.455
			c-0.101-0.139-0.217-0.258-0.35-0.359c-0.132-0.101-0.279-0.178-0.438-0.234c-0.159-0.056-0.327-0.083-0.504-0.083h-1.734v3.009
			h-0.918v-7.034h3.107c0.377,0,0.72,0.034,1.03,0.1c0.309,0.067,0.573,0.176,0.793,0.327s0.389,0.353,0.508,0.605
			c0.119,0.252,0.178,0.564,0.178,0.935c0,0.253-0.037,0.484-0.113,0.689c-0.076,0.205-0.183,0.387-0.322,0.545
			c-0.139,0.157-0.306,0.29-0.501,0.398c-0.195,0.108-0.41,0.189-0.645,0.241c0.492,0.158,0.865,0.584,1.123,1.28L128.225,59.653z
			 M123.282,55.8h2.082c0.284,0,0.53-0.02,0.737-0.06c0.207-0.039,0.379-0.107,0.514-0.202c0.136-0.094,0.237-0.219,0.302-0.373
			c0.064-0.154,0.097-0.347,0.097-0.58c0-0.797-0.501-1.197-1.503-1.197h-2.23V55.8z"/>
		<path fill="#CF1F25" d="M136.311,52.619l-2.736,7.034h-0.964l-2.736-7.034h0.992l2.23,6.028l2.212-6.028H136.311z"/>
		<path fill="#CF1F25" d="M139.356,59.653h-0.946v-7.034h0.946V59.653z"/>
		<path fill="#CF1F25" d="M147.983,54.739h-0.96c-0.028-0.217-0.091-0.415-0.19-0.594s-0.229-0.331-0.39-0.457
			c-0.161-0.125-0.353-0.222-0.578-0.29c-0.224-0.068-0.47-0.102-0.739-0.102c-0.362,0-0.687,0.064-0.974,0.192
			c-0.288,0.129-0.532,0.313-0.73,0.552c-0.2,0.24-0.353,0.536-0.46,0.889c-0.107,0.352-0.159,0.754-0.159,1.205
			c0,0.458,0.055,0.863,0.164,1.215c0.109,0.353,0.264,0.651,0.462,0.893c0.198,0.242,0.439,0.425,0.721,0.549
			c0.283,0.124,0.603,0.185,0.958,0.185c0.581,0,1.033-0.135,1.357-0.408c0.322-0.272,0.509-0.655,0.558-1.15h0.96
			c-0.034,0.38-0.13,0.717-0.287,1.01c-0.158,0.294-0.364,0.54-0.617,0.74c-0.253,0.2-0.547,0.35-0.881,0.452
			c-0.334,0.102-0.693,0.154-1.076,0.154c-0.501,0-0.954-0.085-1.359-0.255c-0.405-0.17-0.749-0.414-1.034-0.73
			c-0.284-0.317-0.504-0.699-0.658-1.148s-0.232-0.951-0.232-1.507c0-0.559,0.078-1.063,0.232-1.511s0.374-0.83,0.658-1.146
			c0.285-0.315,0.629-0.557,1.034-0.727c0.405-0.171,0.858-0.255,1.359-0.255c0.377,0,0.732,0.054,1.066,0.162
			c0.334,0.108,0.628,0.26,0.884,0.457c0.255,0.197,0.462,0.433,0.621,0.709C147.853,54.1,147.95,54.405,147.983,54.739z"/>
		<path fill="#CF1F25" d="M155.671,59.653h-5.245v-7.034h5.082v0.83h-4.163v2.147h3.886v0.839h-3.886v2.375h4.327V59.653z"/>
		<path fill="#CF1F25" d="M160.775,59.774c-0.504,0-0.942-0.059-1.316-0.178c-0.374-0.119-0.685-0.286-0.932-0.499
			c-0.248-0.213-0.433-0.466-0.557-0.758s-0.19-0.609-0.2-0.953h0.895c0.021,0.266,0.088,0.496,0.202,0.691
			c0.112,0.195,0.261,0.355,0.445,0.48c0.183,0.126,0.397,0.219,0.64,0.281c0.242,0.061,0.503,0.092,0.781,0.092
			c0.253,0,0.486-0.026,0.699-0.079c0.214-0.053,0.397-0.13,0.55-0.232c0.154-0.102,0.273-0.226,0.36-0.375
			c0.086-0.149,0.13-0.317,0.13-0.506c0-0.195-0.038-0.359-0.116-0.493c-0.077-0.135-0.202-0.253-0.375-0.355
			c-0.174-0.102-0.401-0.193-0.682-0.273s-0.624-0.164-1.029-0.25c-0.412-0.083-0.761-0.184-1.049-0.301
			c-0.287-0.118-0.52-0.253-0.7-0.409c-0.179-0.154-0.309-0.331-0.388-0.531c-0.079-0.2-0.118-0.426-0.118-0.679
			c0-0.281,0.059-0.542,0.177-0.783c0.117-0.242,0.285-0.448,0.503-0.62c0.218-0.171,0.482-0.305,0.791-0.403
			c0.309-0.097,0.653-0.146,1.034-0.146c0.389,0,0.747,0.047,1.076,0.141c0.327,0.095,0.607,0.231,0.842,0.411
			c0.233,0.179,0.417,0.4,0.554,0.663c0.136,0.263,0.207,0.562,0.213,0.899h-0.909c-0.086-0.859-0.664-1.289-1.734-1.289
			c-0.534,0-0.943,0.099-1.224,0.296s-0.421,0.456-0.421,0.774c0,0.149,0.023,0.276,0.069,0.383
			c0.046,0.107,0.131,0.201,0.252,0.283c0.123,0.082,0.289,0.156,0.499,0.225c0.21,0.068,0.479,0.137,0.807,0.209
			c0.321,0.074,0.604,0.144,0.85,0.21c0.247,0.067,0.462,0.131,0.648,0.193c0.17,0.061,0.334,0.144,0.493,0.246
			c0.159,0.102,0.302,0.225,0.429,0.371c0.127,0.145,0.228,0.314,0.304,0.508c0.076,0.193,0.113,0.409,0.113,0.647
			c0,0.306-0.064,0.587-0.192,0.843c-0.129,0.257-0.308,0.479-0.538,0.666c-0.23,0.187-0.506,0.334-0.825,0.44
			C161.505,59.72,161.156,59.774,160.775,59.774z"/>
		<path fill="#CF1F25" d="M174.864,61.721h-0.756v-9.102h0.756V61.721z"/>
		<path fill="#CF1F25" d="M190.886,53.449h-2.336v6.204h-0.932v-6.204h-2.314v-0.83h5.583V53.449z"/>
		<path fill="#CF1F25" d="M194.084,59.653h-0.946v-7.034h0.946V59.653z"/>
		<path fill="#CF1F25" d="M202.712,54.739h-0.96c-0.028-0.217-0.091-0.415-0.19-0.594s-0.229-0.331-0.39-0.457
			c-0.161-0.125-0.353-0.222-0.578-0.29c-0.224-0.068-0.47-0.102-0.739-0.102c-0.362,0-0.687,0.064-0.974,0.192
			c-0.288,0.129-0.532,0.313-0.73,0.552c-0.2,0.24-0.353,0.536-0.46,0.889c-0.107,0.352-0.159,0.754-0.159,1.205
			c0,0.458,0.055,0.863,0.164,1.215c0.109,0.353,0.264,0.651,0.462,0.893c0.198,0.242,0.439,0.425,0.721,0.549
			c0.283,0.124,0.603,0.185,0.958,0.185c0.581,0,1.033-0.135,1.357-0.408c0.322-0.272,0.509-0.655,0.558-1.15h0.96
			c-0.034,0.38-0.13,0.717-0.287,1.01c-0.158,0.294-0.364,0.54-0.617,0.74c-0.253,0.2-0.547,0.35-0.881,0.452
			c-0.334,0.102-0.693,0.154-1.076,0.154c-0.501,0-0.954-0.085-1.359-0.255c-0.405-0.17-0.749-0.414-1.034-0.73
			c-0.284-0.317-0.504-0.699-0.658-1.148c-0.154-0.448-0.232-0.951-0.232-1.507c0-0.559,0.078-1.063,0.232-1.511
			c0.154-0.448,0.374-0.83,0.658-1.146c0.285-0.315,0.629-0.557,1.034-0.727c0.405-0.171,0.858-0.255,1.359-0.255
			c0.377,0,0.732,0.054,1.066,0.162c0.334,0.108,0.628,0.26,0.884,0.457c0.255,0.197,0.462,0.433,0.621,0.709
			C202.582,54.1,202.678,54.405,202.712,54.739z"/>
		<path fill="#CF1F25" d="M210.9,59.653h-1.223l-2.509-3.515l-1.094,1.076v2.439h-0.918v-7.034h0.918v3.482l3.436-3.482h1.261
			l-2.953,2.875L210.9,59.653z"/>
		<path fill="#CF1F25" d="M218.096,59.653h-5.245v-7.034h5.082v0.83h-4.163v2.147h3.886v0.839h-3.886v2.375h4.327V59.653z"/>
		<path fill="#CF1F25" d="M225.545,53.449h-2.336v6.204h-0.932v-6.204h-2.314v-0.83h5.583V53.449z"/>
		<path fill="#CF1F25" d="M230.348,59.774c-0.504,0-0.942-0.059-1.316-0.178c-0.374-0.119-0.685-0.286-0.932-0.499
			c-0.248-0.213-0.433-0.466-0.557-0.758s-0.19-0.609-0.2-0.953h0.895c0.021,0.266,0.088,0.496,0.201,0.691
			c0.112,0.195,0.261,0.355,0.445,0.48c0.183,0.126,0.397,0.219,0.64,0.281c0.242,0.061,0.503,0.092,0.781,0.092
			c0.253,0,0.486-0.026,0.7-0.079c0.214-0.053,0.397-0.13,0.55-0.232c0.154-0.102,0.273-0.226,0.36-0.375
			c0.086-0.149,0.13-0.317,0.13-0.506c0-0.195-0.038-0.359-0.116-0.493c-0.077-0.135-0.202-0.253-0.375-0.355
			c-0.174-0.102-0.401-0.193-0.682-0.273s-0.624-0.164-1.029-0.25c-0.412-0.083-0.761-0.184-1.049-0.301
			c-0.287-0.118-0.52-0.253-0.699-0.409c-0.179-0.154-0.309-0.331-0.388-0.531c-0.079-0.2-0.118-0.426-0.118-0.679
			c0-0.281,0.059-0.542,0.177-0.783c0.117-0.242,0.285-0.448,0.503-0.62c0.218-0.171,0.482-0.305,0.791-0.403
			c0.309-0.097,0.653-0.146,1.034-0.146c0.389,0,0.747,0.047,1.076,0.141c0.327,0.095,0.607,0.231,0.842,0.411
			c0.233,0.179,0.417,0.4,0.554,0.663c0.136,0.263,0.207,0.562,0.213,0.899h-0.909c-0.086-0.859-0.664-1.289-1.734-1.289
			c-0.534,0-0.943,0.099-1.224,0.296s-0.421,0.456-0.421,0.774c0,0.149,0.023,0.276,0.069,0.383c0.046,0.107,0.13,0.201,0.252,0.283
			c0.123,0.082,0.289,0.156,0.499,0.225c0.21,0.068,0.479,0.137,0.807,0.209c0.321,0.074,0.605,0.144,0.85,0.21
			c0.247,0.067,0.462,0.131,0.648,0.193c0.17,0.061,0.334,0.144,0.493,0.246c0.159,0.102,0.302,0.225,0.429,0.371
			c0.127,0.145,0.228,0.314,0.304,0.508c0.076,0.193,0.113,0.409,0.113,0.647c0,0.306-0.064,0.587-0.192,0.843
			c-0.129,0.257-0.308,0.479-0.538,0.666c-0.23,0.187-0.506,0.334-0.825,0.44C231.078,59.72,230.728,59.774,230.348,59.774z"/>
	</g>
	<circle fill="#FFFFFF" cx="97.102" cy="25.461" r="2.335"/>
	<g>
		<path fill="#CF1F25" d="M100.3,25.461c0,0.969-0.442,1.828-1.125,2.414h0.073l0.257-0.289c0.524-0.588,0.813-1.342,0.813-2.126
			c0-0.784-0.289-1.538-0.813-2.126l-0.257-0.289h-0.073C99.857,23.633,100.3,24.492,100.3,25.461z"/>
		<g>
			<g>
				<path fill="#CF1F25" d="M165.561,23.908h-10.796v3.104h11.904L165.561,23.908z M157.128,25.763
					c-0.167,0-0.302-0.135-0.302-0.302c0-0.167,0.135-0.302,0.302-0.302s0.302,0.135,0.302,0.302
					C157.43,25.627,157.295,25.763,157.128,25.763z"/>
			</g>
			<g>
				<path fill="#CF1F25" d="M155.199,27.875v0.126c0,0.119-0.098,0.217-0.217,0.217c-0.119,0-0.217-0.098-0.217-0.217v-0.126h-0.862
					v-4.829h0.862V22.92c0-0.119,0.098-0.217,0.217-0.217c0.119,0,0.217,0.098,0.217,0.217v0.126h4.051v-9.161
					c0-2.421-1.981-4.403-4.403-4.403h-57.45c-2.421,0-4.403,1.981-4.403,4.403v9.161h2.035c0.56-0.481,1.278-0.783,2.072-0.783
					c0.794,0,1.512,0.302,2.072,0.783h0.073l0.257,0.289c0.524,0.588,0.813,1.342,0.813,2.126c0,0.784-0.289,1.538-0.813,2.126
					l-0.257,0.289h-0.073c-0.56,0.481-1.278,0.783-2.072,0.783c-0.794,0-1.512-0.302-2.072-0.783h-2.035v9.161
					c0,2.421,1.981,4.403,4.403,4.403h57.45c2.421,0,4.403-1.981,4.403-4.403v-9.161H155.199z M154.982,19.872
					c0.308,0,0.558,0.25,0.558,0.558c0,0.308-0.25,0.558-0.558,0.558s-0.558-0.25-0.558-0.558
					C154.425,20.122,154.674,19.872,154.982,19.872z M151.319,39.929h-2.903h-1.538h-45.996V10.992h17.26h1.538h31.639V39.929z"/>
			</g>
		</g>
	</g>
	<circle fill="#FFFFFF" cx="97.102" cy="25.461" r="2.335"/>
	<g>
		<circle fill="#3E7638" cx="197.484" cy="69.352" r="3.648"/>
		<circle fill="#27748C" cx="208.016" cy="69.352" r="3.648"/>
		<circle fill="#85327A" cx="218.781" cy="69.352" r="3.648"/>
		<circle fill="#F15D22" cx="229.306" cy="69.352" r="3.648"/>
	</g>
</g>
</svg>
